<svg width="60" height="51" viewBox="0 0 60 51" fill="none" xmlns="http://www.w3.org/2000/svg">
<g id="Frame" clip-path="url(#clip0_70_1190)">
<g id="Group">
<g id="Group_2">
<path id="Vector" d="M30.0001 49.0922L0.697754 29.4716V11.9106L30.3257 31.748V48.8754M1.24039 29.038L29.566 48.0082V32.1816L1.24039 13.2115V29.038Z" fill="#1A1A1A"/>
</g>
<g id="Group_3">
<path id="Vector_2" d="M29.6746 48.8754V31.748L59.3025 11.9106V29.4716L30.0001 49.0922M30.3257 32.1816V48.0082L58.6513 29.038V13.2115L30.3257 32.1816Z" fill="#1A1A1A"/>
</g>
<g id="Group_4">
<g id="Group_5">
<path id="Vector_3" d="M19.3644 0.311529V17.2221L0.697754 29.363V12.0188L18.9303 0.0947266M1.34892 12.344V28.0622L18.7133 16.7885V1.07034L1.34892 12.344Z" fill="#1A1A1A"/>
</g>
</g>
<g id="Group_6">
<g id="Group_7">
<path id="Vector_4" d="M40.9613 0.0947266L59.3024 11.9104V29.363L40.5272 17.2221V0.311529M41.1784 16.8969L58.6513 28.1706V12.4524L41.1784 1.07034V16.8969Z" fill="#1A1A1A"/>
</g>
</g>
<g id="Group_8">
<path id="Vector_5" d="M30.3257 23.7262L40.6358 16.7885V1.17874L30.3257 8.11641V23.7262ZM29.6746 24.5934V7.6828L40.9614 0.0947266L41.1784 0.311529V17.3305L29.8916 24.9186" fill="#1A1A1A"/>
</g>
<g id="Group_9">
<path id="Vector_6" d="M19.3644 1.28714L29.6745 8.22481V23.8346L19.3644 16.8969V1.28714ZM18.7133 0.419927V17.3305L30.0001 24.9186L30.3257 24.7018V7.7912L19.0388 0.203125" fill="#1A1A1A"/>
</g>
</g>
</g>
<defs>
<clipPath id="clip0_70_1190">
<rect width="60" height="50" fill="white" transform="translate(0 0.0947266)"/>
</clipPath>
</defs>
</svg>
